<svg xmlns="http://www.w3.org/2000/svg" viewBox="0 0 400 300" fill="none">
  <rect width="400" height="300" fill="#f8fafc"/>
  <rect x="100" y="60" width="200" height="180" rx="12" fill="#e0f2fe" stroke="#0ea5e9" stroke-width="2"/>
  <circle cx="200" cy="130" r="35" fill="#7dd3fc"/>
  <circle cx="200" cy="130" r="25" fill="#0ea5e9"/>
  <path d="M185 130 h30 M200 115 v30" stroke="#fff" stroke-width="4" stroke-linecap="round"/>
  <rect x="160" y="180" width="80" height="8" rx="4" fill="#0ea5e9"/>
  <rect x="150" y="200" width="100" height="8" rx="4" fill="#7dd3fc"/>
  <rect x="170" y="220" width="60" height="8" rx="4" fill="#7dd3fc"/>
  <circle cx="80" cy="180" r="25" fill="#dcfce7" stroke="#22c55e" stroke-width="2"/>
  <circle cx="80" cy="180" r="15" fill="#22c55e"/>
  <path d="M75 175 l10 10" stroke="#fff" stroke-width="2" stroke-linecap="round"/>
  <circle cx="320" cy="180" r="25" fill="#fef3c7" stroke="#f59e0b" stroke-width="2"/>
  <circle cx="320" cy="180" r="15" fill="#f59e0b"/>
  <path d="M315 180 l10 0" stroke="#fff" stroke-width="2"/>
  <circle cx="120" cy="80" r="15" fill="#fee2e2" stroke="#f87171" stroke-width="2"/>
  <circle cx="280" cy="80" r="15" fill="#fee2e2" stroke="#f87171" stroke-width="2"/>
</svg>