<svg xmlns="http://www.w3.org/2000/svg" viewBox="0 0 400 400" fill="none">
  <rect width="400" height="400" fill="#f0f9ff"/>
  <circle cx="200" cy="180" r="80" fill="#e0f2fe" stroke="#0ea5e9" stroke-width="3"/>
  <path d="M170 180 h60 M200 150 v60" stroke="#0ea5e9" stroke-width="8" stroke-linecap="round"/>
  <rect x="120" y="280" width="60" height="8" rx="4" fill="#7dd3fc"/>
  <rect x="130" y="300" width="40" height="8" rx="4" fill="#7dd3fc"/>
  <rect x="140" y="320" width="20" height="8" rx="4" fill="#7dd3fc"/>
  <rect x="220" y="280" width="60" height="8" rx="4" fill="#7dd3fc"/>
  <rect x="230" y="300" width="40" height="8" rx="4" fill="#7dd3fc"/>
  <rect x="240" y="320" width="20" height="8" rx="4" fill="#7dd3fc"/>
  <circle cx="320" cy="120" r="30" fill="#fee2e2" stroke="#f87171" stroke-width="2"/>
  <path d="M320 105 l10 15 M310 135 h20" stroke="#f87171" stroke-width="4" stroke-linecap="round"/>
  <circle cx="80" cy="100" r="20" fill="#dcfce7" stroke="#22c55e" stroke-width="2"/>
  <path d="M70 100 h20 M80 90 v20" stroke="#22c55e" stroke-width="3" stroke-linecap="round"/>
</svg>