<svg xmlns="http://www.w3.org/2000/svg" viewBox="0 0 400 400" fill="none">
  <rect width="400" height="400" fill="#f0f9ff"/>
  <circle cx="200" cy="120" r="50" fill="#e0f2fe" stroke="#0ea5e9" stroke-width="3"/>
  <circle cx="200" cy="120" r="35" fill="#7dd3fc"/>
  <circle cx="200" cy="120" r="20" fill="#0ea5e9"/>
  <circle cx="185" cy="110" r="4" fill="#fff"/>
  <circle cx="215" cy="110" r="4" fill="#fff"/>
  <path d="M185 140 Q200 155 215 140" stroke="#fff" stroke-width="3" fill="none"/>
  <rect x="100" y="200" width="80" height="80" rx="8" fill="#dcfce7" stroke="#22c55e" stroke-width="2"/>
  <path d="M140 240 l20 20" stroke="#22c55e" stroke-width="4" stroke-linecap="round"/>
  <rect x="220" y="200" width="80" height="80" rx="8" fill="#fee2e2" stroke="#f87171" stroke-width="2"/>
  <path d="M260 240 h-20 M250 230 v20" stroke="#f87171" stroke-width="4" stroke-linecap="round"/>
  <rect x="100" y="300" width="80" height="60" rx="8" fill="#fef3c7" stroke="#f59e0b" stroke-width="2"/>
  <circle cx="140" cy="330" r="15" fill="#fef3c7"/>
  <path d="M135 330 h10" stroke="#f59e0b" stroke-width="3"/>
  <rect x="220" y="300" width="80" height="60" rx="8" fill="#e0f2fe" stroke="#0ea5e9" stroke-width="2"/>
  <path d="M260 330 v-20 h-20" stroke="#0ea5e9" stroke-width="3"/>
</svg>